<svg xmlns="http://www.w3.org/2000/svg" width="25.672" height="25.672" viewBox="0 0 25.672 25.672">
  <path id="Path_37085" data-name="Path 37085" d="M.634,17.646,6.51,16.387a.8.8,0,0,1,.735.217L9.4,18.756A21.117,21.117,0,0,0,18.756,9.4L16.6,7.245a.8.8,0,0,1-.217-.735L17.646.634A.8.8,0,0,1,18.431,0a7.151,7.151,0,0,1,3.422.855A7.28,7.28,0,0,1,25.6,6.185a7.1,7.1,0,0,1-.362,3.49,26.168,26.168,0,0,1-6.057,9.5,26.168,26.168,0,0,1-9.5,6.057,7.088,7.088,0,0,1-3.49.362,7.28,7.28,0,0,1-5.33-3.742A7.151,7.151,0,0,1,0,18.431a.8.8,0,0,1,.634-.785ZM21.579,2.591l.075.019A5.513,5.513,0,0,0,19.3,1.67a.251.251,0,0,0-.282.2l-.947,4.42a.251.251,0,0,0,.068.23l.506.506a.251.251,0,0,0,.422-.125l.678-3.161a1.505,1.505,0,0,1,1.829-1.146ZM10.071,20.564a1.508,1.508,0,0,0,1.779.26,21.912,21.912,0,0,0,8.974-8.974,1.508,1.508,0,0,0-.26-1.779h0a.238.238,0,0,0-.381.061A22.718,22.718,0,0,1,10.131,20.182a.238.238,0,0,0-.061.381ZM2.61,21.654c-.008-.029-.015-.057-.022-.086A1.5,1.5,0,0,1,3.737,19.75L6.9,19.072a.251.251,0,0,0,.125-.422l-.506-.506a.251.251,0,0,0-.23-.068l-4.42.947a.251.251,0,0,0-.2.282A5.514,5.514,0,0,0,2.61,21.654Z" transform="translate(0)" fill="#707070"/>
</svg>
