<svg id="loupe" xmlns="http://www.w3.org/2000/svg" width="18.402" height="17.075" viewBox="0 0 18.402 17.075">
  <g id="Group_114" data-name="Group 114" transform="translate(0)">
    <g id="Group_113" data-name="Group 113">
      <path id="Path_247" data-name="Path 247" d="M7.639,0A7.3,7.3,0,0,0,.08,7.011a7.3,7.3,0,0,0,7.559,7.011A7.3,7.3,0,0,0,15.2,7.011,7.307,7.307,0,0,0,7.639,0Zm0,11.584a4.761,4.761,0,0,1-4.93-4.573,4.761,4.761,0,0,1,4.93-4.573,4.761,4.761,0,0,1,4.93,4.573A4.768,4.768,0,0,1,7.639,11.584Z" transform="translate(-0.08)" fill="#13a97b"/>
    </g>
  </g>
  <g id="Group_116" data-name="Group 116" transform="translate(13.142 12.196)">
    <g id="Group_115" data-name="Group 115" transform="translate(0)">
      <path id="Path_248" data-name="Path 248" d="M324.857,322.858l-2.629-2.439a1.389,1.389,0,0,0-1.86,0,1.158,1.158,0,0,0,0,1.725L323,324.583a1.389,1.389,0,0,0,1.86,0A1.159,1.159,0,0,0,324.857,322.858Z" transform="translate(-319.982 -320.062)" fill="#13a97b"/>
    </g>
  </g>
</svg>
