<svg xmlns="http://www.w3.org/2000/svg" width="18" height="18" viewBox="0 0 18 18">
  <g id="Group_10491" data-name="Group 10491" transform="translate(-70 -307)">
    <g id="visibility_24px" transform="translate(70 307)">
      <rect id="Boundary" width="18" height="18" fill="none"/>
      <path id="_Color" data-name=" ↳Color" d="M8.021,10.938A8.554,8.554,0,0,1,3.116,9.4,8.631,8.631,0,0,1,0,5.469a8.617,8.617,0,0,1,16.041,0A8.631,8.631,0,0,1,12.925,9.4,8.554,8.554,0,0,1,8.021,10.938Zm0-9.115a3.646,3.646,0,1,0,3.646,3.645A3.65,3.65,0,0,0,8.021,1.823Zm0,5.833a2.188,2.188,0,1,1,2.188-2.188A2.19,2.19,0,0,1,8.021,7.656Z" transform="translate(0.729 3.281)" fill="rgba(0,0,0,0.16)"/>
    </g>
  </g>
</svg>
