<svg id="visibility_24px" xmlns="http://www.w3.org/2000/svg" width="17" height="17" viewBox="0 0 17 17">
  <rect id="Boundary" width="17" height="17" fill="none"/>
  <path id="_Color" data-name=" ↳Color" d="M7.906,10.781A8.432,8.432,0,0,1,3.072,9.269,8.507,8.507,0,0,1,0,5.39a8.494,8.494,0,0,1,15.812,0,8.507,8.507,0,0,1-3.072,3.879A8.432,8.432,0,0,1,7.906,10.781Zm0-8.984A3.594,3.594,0,1,0,11.5,5.39,3.6,3.6,0,0,0,7.906,1.8Zm0,5.75A2.156,2.156,0,1,1,10.063,5.39,2.159,2.159,0,0,1,7.906,7.547Z" transform="translate(0.719 3.234)" fill="rgba(0,0,0,0.16)"/>
</svg>
